<svg xmlns="http://www.w3.org/2000/svg" width="66" height="65" viewBox="0 0 66 65" fill="none"><circle cx="33" cy="32.5" r="32.5" fill="#CC0040"></circle><g clip-path="url(#clip0_150_874)"><path d="M36.32 44.6483L33.5 47.4683L30.68 44.6483C25.1375 43.3683 21 38.3983 21 32.4683C21 25.5683 26.6 19.9683 33.5 19.9683C40.4 19.9683 46 25.5683 46 32.4683C46 38.3983 41.8625 43.3683 36.32 44.6483ZM26.0287 36.7383C27.8637 39.4758 30.6187 41.2183 33.7 41.2183C36.78 41.2183 39.5362 39.477 41.37 36.7383C39.2897 34.794 36.5474 33.7143 33.7 33.7183C30.8521 33.714 28.1094 34.7937 26.0287 36.7383ZM33.5 31.2183C34.4946 31.2183 35.4484 30.8232 36.1517 30.1199C36.8549 29.4167 37.25 28.4628 37.25 27.4683C37.25 26.4737 36.8549 25.5199 36.1517 24.8166C35.4484 24.1133 34.4946 23.7183 33.5 23.7183C32.5054 23.7183 31.5516 24.1133 30.8483 24.8166C30.1451 25.5199 29.75 26.4737 29.75 27.4683C29.75 28.4628 30.1451 29.4167 30.8483 30.1199C31.5516 30.8232 32.5054 31.2183 33.5 31.2183Z" fill="white"></path></g><defs><clipPath id="clip0_150_874"><rect width="30" height="30" fill="white" transform="translate(18.5 17.4683)"></rect></clipPath></defs></svg>