<svg xmlns="http://www.w3.org/2000/svg" width="16" height="17" viewBox="0 0 16 17" fill="none"><path d="M1.72117 1.54131C1.33081 1.54131 0.949755 1.54596 0.568694 1.54131C0.159752 1.53666 -0.109779 1.14631 0.0435745 0.77919C0.131869 0.560777 0.303811 0.435306 0.540812 0.430659C1.10776 0.426012 1.67935 0.421365 2.24629 0.430659C2.53906 0.435306 2.75282 0.649072 2.78535 0.946485C2.8597 1.62496 2.92941 2.30808 2.99912 2.98655C3.00841 3.05626 3.0177 3.12596 3.03165 3.21426C3.106 3.21426 3.18035 3.21426 3.2547 3.21426C7.11643 3.21426 10.9781 3.21426 14.8399 3.21426C15.4347 3.21426 15.9041 3.56279 15.9877 4.11579C16.0202 4.33885 15.9831 4.57585 15.9366 4.79891C15.5137 6.79251 15.0908 8.78611 14.654 10.7797C14.4774 11.5976 13.8175 12.1181 12.981 12.1181C10.1184 12.1181 7.25119 12.1181 4.38859 12.1181C3.45918 12.1181 2.77141 11.4768 2.67847 10.5566C2.51582 8.9534 2.33923 7.35016 2.17194 5.75156C2.02788 4.38068 1.88382 3.00979 1.7444 1.63425C1.73511 1.61566 1.73046 1.59243 1.72117 1.54131ZM3.13853 4.3342C3.20823 4.97085 3.27329 5.58427 3.33835 6.20233C3.48706 7.61969 3.63577 9.03705 3.78912 10.4544C3.83094 10.8262 4.03541 11.0074 4.41647 11.0074C7.26513 11.0074 10.1091 11.0074 12.9578 11.0074C13.311 11.0074 13.5062 10.8494 13.5805 10.5009C13.9383 8.83258 14.2962 7.15963 14.654 5.49133C14.7376 5.11027 14.8166 4.72456 14.9003 4.3342C10.9735 4.3342 7.06531 4.3342 3.13853 4.3342Z" fill="#CC0040"></path><path d="M3.34299 14.911C3.34299 13.9909 4.09117 13.238 5.00664 13.238C5.92676 13.238 6.67959 13.9862 6.67959 14.9017C6.67959 15.8218 5.93141 16.5746 5.01594 16.5746C4.10046 16.5793 3.34299 15.8265 3.34299 14.911ZM5.00664 15.4593C5.3087 15.4593 5.56429 15.213 5.56429 14.911C5.56894 14.6089 5.32264 14.3533 5.02058 14.3487C4.71387 14.344 4.45364 14.5996 4.45364 14.9063C4.45829 15.2084 4.70923 15.4593 5.00664 15.4593Z" fill="#CC0040"></path><path d="M11.6891 16.5745C10.7737 16.5745 10.0208 15.8217 10.0208 14.9016C10.0208 13.9861 10.7737 13.2333 11.6938 13.2333C12.6139 13.2333 13.3621 13.9861 13.3621 14.9062C13.3621 15.8263 12.6093 16.5745 11.6891 16.5745ZM11.6891 14.3486C11.3871 14.3486 11.1361 14.5995 11.1361 14.9016C11.1361 15.2036 11.3824 15.4546 11.6845 15.4592C11.9912 15.4639 12.2514 15.2036 12.2468 14.8969C12.2468 14.5949 11.9912 14.3486 11.6891 14.3486Z" fill="#CC0040"></path></svg>