<svg xmlns="http://www.w3.org/2000/svg" width="24" height="24" viewBox="0 0 24 24" fill="none"><path d="M2.99976 5V4.29688C2.61143 4.29688 2.29663 4.61167 2.29663 5H2.99976ZM20.9998 5H21.7029C21.7029 4.61167 21.3881 4.29688 20.9998 4.29688V5ZM20.9998 19V19.7031C21.3881 19.7031 21.7029 19.3883 21.7029 19H20.9998ZM2.99976 19H2.29663C2.29663 19.3883 2.61143 19.7031 2.99976 19.7031V19ZM3.34122 6.38536C3.00177 6.19677 2.5737 6.31907 2.38511 6.65853C2.19653 6.99799 2.31883 7.42605 2.65829 7.61464L3.34122 6.38536ZM11.9998 12L11.6583 12.6146C11.8706 12.7326 12.1289 12.7326 12.3412 12.6146L11.9998 12ZM21.3412 7.61464C21.6807 7.42605 21.803 6.99799 21.6144 6.65853C21.4258 6.31907 20.9977 6.19677 20.6583 6.38536L21.3412 7.61464ZM2.99976 5.70312H20.9998V4.29688H2.99976V5.70312ZM20.2966 5V19H21.7029V5H20.2966ZM20.9998 18.2969H2.99976V19.7031H20.9998V18.2969ZM3.70288 19V5H2.29663V19H3.70288ZM2.65829 7.61464L11.6583 12.6146L12.3412 11.3854L3.34122 6.38536L2.65829 7.61464ZM12.3412 12.6146L21.3412 7.61464L20.6583 6.38536L11.6583 11.3854L12.3412 12.6146Z" fill="white"></path></svg>