<svg xmlns="http://www.w3.org/2000/svg" width="65" height="65" viewBox="0 0 65 65" fill="none"><circle cx="32.5" cy="32.5" r="32.5" fill="#CC0040"></circle><g clip-path="url(#clip0_150_882)"><path d="M45.2047 20.9949C45.1293 20.8071 44.9844 20.6555 44.8001 20.5719C44.6158 20.4882 44.4063 20.4787 44.2152 20.5455C44.0242 20.6124 43.8662 20.7503 43.7742 20.9306C43.6823 21.1109 43.6633 21.3197 43.7214 21.5136C44.9291 24.9846 42.5319 27.5768 40.7041 28.9652L39.9657 27.907C39.7174 27.5521 39.1623 27.257 38.7307 27.2518L34.5863 27.27C34.08 27.2853 33.5873 27.4371 33.1602 27.7094L20.948 36.2725C20.6639 36.4724 20.4707 36.7767 20.4105 37.1188C20.3503 37.4609 20.4281 37.8129 20.6269 38.0977L26.1766 46.0381C26.5926 46.6296 27.2569 46.5581 27.8497 46.1447L40.0619 37.5803C40.4129 37.332 40.8185 36.7964 40.9615 36.3869L42.2589 32.2984C42.4019 31.8902 42.3148 31.2675 42.0665 30.9126L41.6167 30.2678C44.0711 28.3867 46.6191 25.0626 45.2047 20.9949ZM39.5224 33.1603C39.2974 33.3178 39.0436 33.4294 38.7755 33.4888C38.5074 33.5481 38.2302 33.5541 37.9597 33.5063C37.6893 33.4584 37.431 33.3578 37.1994 33.2101C36.9679 33.0624 36.7678 32.8706 36.6104 32.6455C36.2918 32.1901 36.1669 31.6268 36.2632 31.0794C36.3595 30.532 36.669 30.0451 37.1239 29.7257C37.4805 29.4759 37.9063 29.3437 38.3416 29.3477C38.777 29.3516 39.2003 29.4915 39.5523 29.7478C39.1987 29.961 38.9556 30.0858 38.9101 30.1053C38.749 30.1821 38.6187 30.3114 38.5406 30.472C38.4626 30.6326 38.4414 30.8149 38.4805 30.9891C38.5196 31.1633 38.6168 31.319 38.756 31.4308C38.8952 31.5425 39.0683 31.6037 39.2468 31.6042C39.3586 31.6042 39.473 31.5782 39.5809 31.5275C39.8331 31.4079 40.1035 31.2662 40.3856 31.0985C40.4505 31.4886 40.4039 31.8891 40.2512 32.2538C40.0985 32.6186 39.8459 32.9328 39.5224 33.1603Z" fill="white"></path></g><defs><clipPath id="clip0_150_882"><rect width="26" height="26" fill="white" transform="translate(20 20.4683)"></rect></clipPath></defs></svg>