<svg xmlns="http://www.w3.org/2000/svg" width="65" height="65" viewBox="0 0 65 65" fill="none"><circle cx="32.5" cy="32.5" r="32.5" fill="#CC0040"></circle><path d="M32.9118 20.3926C26.1066 20.3926 20.5701 25.9291 20.5701 32.7344V37.8475C20.5701 39.1113 21.6771 40.1394 23.0384 40.1394H24.2726C24.5999 40.1394 24.9138 40.0094 25.1453 39.7779C25.3767 39.5465 25.5068 39.2326 25.5068 38.9052V32.5579C25.5068 32.2305 25.3767 31.9166 25.1453 31.6852C24.9138 31.4537 24.5999 31.3237 24.2726 31.3237H23.152C23.8382 26.5474 27.948 22.8609 32.9118 22.8609C37.8757 22.8609 41.9855 26.5474 42.6717 31.3237H41.5511C41.2238 31.3237 40.9098 31.4537 40.6784 31.6852C40.4469 31.9166 40.3169 32.2305 40.3169 32.5579V40.1394C40.3169 41.5007 39.2098 42.6078 37.8486 42.6078H35.3802V41.3736H30.4435V45.0761H37.8486C40.5711 45.0761 42.7853 42.862 42.7853 40.1394C44.1466 40.1394 45.2536 39.1113 45.2536 37.8475V32.7344C45.2536 25.9291 39.7171 20.3926 32.9118 20.3926Z" fill="white"></path></svg>